<svg width="165" height="165" viewBox="0 0 165 165" fill="none" xmlns="http://www.w3.org/2000/svg">
<g clip-path="url(#clip0_556_129)">
<path d="M93.5413 113.969L91.6667 100.833L126.262 22.9944C127.595 19.997 130.011 17.6135 133.027 16.3211L158.313 5.4861C158.937 5.2174 159.469 4.77164 159.843 4.2039C160.217 3.63615 160.417 2.97131 160.417 2.29151C160.416 2.02611 160.353 1.76462 160.233 1.52775C160.113 1.29088 159.94 1.08513 159.727 0.926817C159.514 0.768498 159.267 0.661951 159.006 0.615613C158.744 0.569275 158.476 0.584419 158.221 0.659846L120.198 12.0678C118.433 12.598 116.8 13.4968 115.408 14.7049C114.016 15.9129 112.896 17.4027 112.122 19.0757L87.0833 73.3332L0 165H41.25L49.7704 156.479C53.2275 153.021 57.2919 150.229 61.7604 148.243L96.25 132.917C107.539 125.391 146.648 120.954 160.275 119.607C161.569 119.478 162.769 118.873 163.642 117.909C164.516 116.945 165 115.691 165 114.391C165 113.826 164.885 113.267 164.662 112.749C164.439 112.23 164.112 111.763 163.702 111.375C163.292 110.987 162.807 110.687 162.276 110.493C161.746 110.299 161.182 110.216 160.618 110.247L93.5413 113.969Z" fill="#E2A27A"/>
<path d="M153.473 68.2595C153.193 67.5857 153.014 65.4911 152.052 63.4928C151.827 63.1445 150.301 61.0957 150.544 61.2424C148.106 58.6207 146.703 57.4428 143.88 55.4032C142.665 55.3665 141.877 55.2703 140.177 52.997C128.411 45.9157 112.883 34.989 90.6949 34.8561C70.1982 34.7324 43.3353 44.6782 24.4199 55.4628C7.25072 65.2528 8.08031 66.8845 8.23614 79.0395L22.2657 96.8824C27.1699 103.116 31.767 110.495 37.9132 115.587C41.6991 118.722 50.1186 125.294 84.3607 127.783C88.5316 128.086 92.2807 128.15 94.6961 127.756C107.36 125.689 119.652 114.528 123.035 112.892C138.87 105.233 151.846 99.1924 153.555 75.2215C153.743 72.9033 153.716 70.5726 153.473 68.2595Z" fill="#BD9366"/>
<path d="M164.491 140.071C156.411 128.819 140.511 111.627 124.827 122.783C124.461 123.062 124.177 123.436 124.007 123.865C123.181 123.653 122.307 123.753 121.55 124.144C113.465 128.356 101.342 131.358 106.769 162.773C106.911 163.607 107.493 164.326 108.332 164.711C109.171 165.096 110.165 165.101 111.009 164.721C125.318 158.24 128.567 146.195 128.297 136.872C129.938 139.274 131.895 141.332 134.296 142.872C142.258 147.964 152.378 146.901 158.35 145.581C160.059 145.217 161.744 144.742 163.391 144.16C163.762 144.012 164.092 143.778 164.354 143.478C164.616 143.177 164.803 142.819 164.899 142.432C165.009 142.033 165.029 141.614 164.959 141.206C164.888 140.798 164.729 140.411 164.491 140.071Z" fill="#B3C987"/>
<path d="M112.292 155.833C111.688 155.832 111.11 155.593 110.681 155.169C110.252 154.744 110.007 154.168 110 153.564C109.895 142.61 112.576 137.866 115.986 131.858C117.095 129.896 118.3 127.774 119.524 125.189C120.413 123.31 122.43 122.224 124.47 122.448C135.708 123.75 147.982 131.688 155.077 138.091C155.528 138.498 155.799 139.068 155.83 139.675C155.861 140.282 155.649 140.876 155.242 141.327C154.835 141.778 154.265 142.049 153.658 142.08C153.052 142.11 152.457 141.899 152.006 141.492C146.699 136.702 134.814 128.26 123.943 126.999C122.384 129.855 121.133 132.069 119.973 134.117C116.788 139.736 114.487 143.797 114.583 153.519C114.586 153.819 114.53 154.118 114.418 154.397C114.305 154.676 114.139 154.931 113.928 155.146C113.718 155.361 113.467 155.532 113.19 155.65C112.913 155.768 112.616 155.83 112.315 155.833H112.292Z" fill="#99AC74"/>
<path d="M152.084 67.0494C150.425 64.6844 147.634 57.3419 145.654 58.4465C144.985 58.0437 144.225 57.8166 143.445 57.7865C143.128 57.7865 142.789 57.9102 142.455 57.9882C139.301 51.6861 133.293 46.8232 125.945 44.1969C124.731 43.7615 123.686 43.8532 122.833 44.2657C121.907 43.5829 120.986 42.8938 120.07 42.1986C117.723 40.4111 115.44 44.3894 117.755 46.154C122.934 50.1048 125.4 50.5082 125.648 57.1861C126.674 84.7182 123.443 103.12 84.3884 102.075C73.393 101.782 58.1809 93.4769 47.0067 84.2736C45.7406 82.4565 44.6568 80.5191 43.7709 78.4894C42.7855 76.1611 39.3892 75.6936 37.4138 76.8211C37.1663 76.9632 37.0334 77.1694 36.8317 77.3344C34.1688 75.4346 31.2998 73.8417 28.2792 72.5861C25.96 71.619 23.1688 73.6311 22.5638 75.8311C21.8259 78.5077 23.485 80.5794 25.8088 81.5465C43.2805 88.8294 32.6563 98.6148 63.9605 106.672C69.7538 108.162 67.2834 117.118 61.49 115.628C46.7317 111.829 14.7446 89.274 14.7446 89.274C15.1388 89.714 18.6267 139.37 81.4 141.804C83.105 141.868 137.124 144.874 150.508 92.4915C152.538 84.5302 158.817 76.6561 152.084 67.0494Z" fill="#A57F5A"/>
<path d="M90.5622 114.038C90.4476 111.499 92.7759 109.441 95.2051 109.395C96.2959 109.377 97.373 109.29 98.4638 109.193L98.6472 109.18L98.8167 109.148C99.3392 109.056 99.8617 108.973 100.384 108.873C102.19 108.52 103.973 108.043 105.733 107.502C109.377 106.379 112.924 104.968 116.522 103.698C118.974 102.832 121.504 104.683 122.233 106.938C123.044 109.441 121.275 111.843 118.993 112.649C111.205 115.399 103.602 118.521 95.2097 118.676C92.6018 118.727 90.6722 116.513 90.5622 114.038Z" fill="#BD9366"/>
<path d="M83.6092 44.3989C68.1817 42.0614 52.3097 43.0376 41.6488 53.2493C39.8797 54.9406 39.0547 57.3514 39.0363 59.8539C36.9142 62.2968 35.773 65.2393 36.708 69.0893C37.8905 73.9568 38.3763 77.3576 43.0697 79.4889C72.7651 92.9685 124.538 93.4039 128.631 59.2856C130.579 43.0697 97.428 46.4935 83.6092 44.3989Z" fill="#936D46"/>
<path d="M86.2857 128.833C86.3957 131.294 84.0995 133.439 81.7024 133.416C71.6511 133.336 61.689 131.522 52.2545 128.054C49.8437 127.16 48.4641 125.01 49.0553 122.416C49.5732 120.148 52.4424 118.383 54.6928 119.217C63.6945 122.549 72.357 124.163 81.7024 124.25C84.2737 124.273 86.1757 126.33 86.2857 128.833ZM151.126 66.7609C150.283 64.4371 148 62.8742 145.484 63.5709C143.238 64.1942 141.446 66.8754 142.294 69.2129C144.705 75.8634 147.51 83.2884 145.92 90.4567C145.232 93.5504 143.898 96.2088 141.533 98.3492C138.673 100.943 135.305 103.07 132.197 105.357C130.208 106.824 129.218 109.34 130.565 111.632C131.72 113.598 134.832 114.739 136.84 113.263C140.658 110.454 144.82 107.823 148.285 104.578C151.429 101.635 153.574 97.6525 154.614 93.5C156.892 84.4067 154.225 75.3088 151.126 66.7609Z" fill="#BD9366"/>
<path d="M114.519 16.4956C114.594 16.1618 114.591 15.8151 114.51 15.4827C114.505 15.4735 114.496 15.4644 114.496 15.4506C114.478 15.3819 114.432 15.3269 114.405 15.2627C114.308 14.9958 114.164 14.7489 113.978 14.534C113.946 14.5019 113.942 14.4515 113.91 14.4194C96.0208 -3.46937 83.2929 1.50813 77.1833 3.89604C76.3492 4.22146 75.6479 4.50563 75.0658 4.65229C74.7327 4.73544 74.4225 4.89239 74.1582 5.11153C73.8938 5.33068 73.6821 5.60643 73.5387 5.91839C73.3952 6.23036 73.3237 6.57057 73.3294 6.91389C73.3351 7.25721 73.4179 7.59485 73.5717 7.90188C73.645 8.04396 78.8654 18.0494 92.2717 20.3869C90.6996 23.036 89.3429 26.2535 88.2246 30.0852C88.0712 30.6177 88.1152 31.1877 88.3484 31.6904C88.5817 32.1931 88.9885 32.5947 89.4942 32.8215C90.8921 33.4402 92.3404 33.7473 93.83 33.7473C100.302 33.7473 107.511 27.9906 114.226 17.261C114.322 17.1052 114.359 16.9265 114.414 16.7569C114.437 16.6881 114.496 16.6423 114.51 16.569C114.528 16.5415 114.515 16.5185 114.519 16.4956Z" fill="#B3C987"/>
<path d="M94.9757 13.8873C92.2349 12.4115 89.132 10.734 84.0674 9.04731C83.7741 8.95843 83.5017 8.81164 83.2662 8.61562C83.0306 8.41961 82.8368 8.17835 82.6961 7.90611C82.5555 7.63388 82.4708 7.3362 82.4472 7.03068C82.4236 6.72517 82.4615 6.41802 82.5587 6.12742C82.6559 5.83681 82.8104 5.56864 83.013 5.33877C83.2156 5.10891 83.4623 4.92201 83.7384 4.78914C84.0145 4.65627 84.3145 4.58013 84.6206 4.56522C84.9266 4.5503 85.2326 4.59692 85.5203 4.70231C90.9607 6.51731 94.3982 8.3644 97.1528 9.85398C98.867 10.7798 100.361 11.5727 102.011 12.2052C101.516 12.3381 101.003 12.4023 100.522 12.5994C99.1729 13.1554 97.9189 13.9177 96.8045 14.859C96.1917 14.5412 95.582 14.2173 94.9757 13.8873ZM100.719 25.9323C102.424 20.8173 106.209 18.3331 112.292 18.3331C112.899 18.3331 113.482 18.0917 113.912 17.6619C114.342 17.2322 114.583 16.6493 114.583 16.0415C114.583 15.4337 114.342 14.8508 113.912 14.421C113.482 13.9913 112.899 13.7498 112.292 13.7498C104.211 13.7498 98.7065 17.4623 96.3645 24.484C96.1724 25.0614 96.2176 25.6914 96.4901 26.2355C96.7625 26.7796 97.24 27.1932 97.8174 27.3852C98.3948 27.5773 99.0248 27.5321 99.5689 27.2596C100.113 26.9872 100.527 26.5097 100.719 25.9323Z" fill="#99AC74"/>
<path d="M97.4965 46.452C45.0678 44.4765 35.3282 66.4078 42.9961 75.2078C45.3749 77.9349 48.2578 79.5665 51.4844 81.1524C56.8607 83.7924 52.5249 92.0149 47.1532 89.3795C28.2332 80.0936 27.6144 64.2582 38.5915 53.524C31.8953 56.164 29.7411 47.0615 35.0715 44.9074C42.4965 41.9099 50.1874 39.9895 58.0065 38.7703C55.6461 38.344 51.4707 38.5274 51.0674 34.0403C50.3065 25.529 63.0757 30.6257 71.9536 32.7936C78.2007 28.9711 85.2269 28.1186 92.5603 28.7007C97.8449 29.1178 98.7844 34.4757 95.5257 37.1249C104.188 37.4182 102.983 46.6628 97.4965 46.452Z" fill="#DEAD74"/>
<path d="M40.1682 108.12C31.139 91.9001 21.5736 91.9642 15.4869 83.1413C4.32194 66.9484 28.1369 61.7555 23.9386 47.6159C22.2336 41.8913 13.2594 44.3296 14.969 50.0863C16.2707 54.4726 8.17653 56.9017 4.45028 68.3142C2.78116 73.4269 2.99905 78.9684 5.06445 83.9342C-0.293472 84.883 0.430695 92.0513 4.61986 92.8855C7.98861 93.5546 9.92736 94.2284 12.6819 95.2871C13.9011 96.0892 24.8874 99.7926 32.1382 112.814C35.0028 117.952 43.2665 113.685 40.1682 108.12ZM158.941 64.9821C157.057 61.1184 153.885 58.0063 150.393 55.3571C149.971 53.6499 149.496 51.9563 148.967 50.2788C152.703 49.2109 153.789 42.9088 149.082 41.3551C144.636 39.8884 139.576 43.2067 139.356 48.9221C132.205 44.5936 124.623 41.0208 116.733 38.2613C111.146 36.3088 108.043 45.0676 114.033 47.1576C131.138 53.1342 122.389 69.4417 107.74 78.1363C96.3324 83.0588 84.0215 84.1405 73.0582 80.3821C68.0807 78.6771 64.327 87.1517 71.0782 89.4663C86.029 94.5905 104.097 91.0017 117.934 83.2101C125.767 78.7963 133.086 66.2792 131.629 57.3692C131.395 55.953 132.972 54.9905 134.14 55.7696C138.142 58.4326 141.859 62.1771 141.675 63.8409C140.713 72.6638 139.778 77.0042 130.556 83.7921C128.663 85.1855 127.453 87.8576 128.214 90.3051C128.902 92.5142 131.496 93.9717 133.595 92.8442C137.834 90.5663 141.914 87.578 145.163 82.8663C148.532 78.1042 148.922 73.3376 150.214 68.4105C152.226 71.8571 152.822 76.2938 151.062 81.2346C150.191 83.6776 151.91 86.5238 154.151 86.8767C162.181 88.4396 162.814 72.9251 158.941 64.9821ZM103.363 99.4534C101.567 90.2317 83.5494 102.703 67.3886 92.5692C61.9069 89.1317 57.2182 97.1571 62.0994 100.219C73.4982 107.369 86.8999 106.338 99.6919 104.912C102.19 104.628 103.817 101.773 103.363 99.4534Z" fill="#DEAD74"/>
<path d="M102.873 41.4748C93.2297 39.0273 81.7714 51.3702 78.6226 63.7681C76.4639 72.2748 78.8335 78.5356 83.6093 82.4589C91.5935 83.0456 99.8756 81.5285 107.741 78.1369C109.55 77.0467 111.279 75.829 112.915 74.4931C113.121 73.8698 113.378 73.3152 113.552 72.6414C116.696 60.2389 112.521 43.9223 102.873 41.4748Z" fill="#DCBA4E"/>
<path d="M109.368 46.5714C109.286 46.6067 109.219 46.6696 109.179 46.7492C109.138 46.8287 109.127 46.9199 109.148 47.0068C110.307 52.3097 110.303 58.2543 108.969 63.5068C105.82 75.9093 96.5342 79.6997 86.8909 77.2476C83.6001 76.4134 80.7126 74.9376 78.4392 72.8934C78.4084 72.866 78.3699 72.8486 78.329 72.8437C78.288 72.8388 78.2465 72.8465 78.2101 72.8659C78.1743 72.886 78.1454 72.9165 78.1274 72.9533C78.1094 72.9902 78.1031 73.0316 78.1092 73.0722C78.723 76.7598 80.6626 80.0962 83.5634 82.4543C91.5613 83.0501 99.8617 81.533 107.74 78.1322C109.55 77.042 111.279 75.8244 112.915 74.4885C113.121 73.8651 113.378 73.3105 113.552 72.6322C115.789 63.8322 114.322 53.0843 109.84 46.6951C109.786 46.6251 109.71 46.575 109.625 46.5526C109.539 46.5302 109.449 46.5368 109.368 46.5714Z" fill="#BA9D42"/>
<path d="M97.7624 47.0022C95.1316 46.333 91.0524 49.083 88.6553 53.1392C86.2582 57.2001 86.4416 61.0317 89.0724 61.6963C91.7032 62.3609 95.7824 59.6155 98.1795 55.5592C100.581 51.503 100.393 47.6713 97.7624 47.0022Z" fill="#EFD47F"/>
<path d="M86.2723 68.443C83.1327 56.0405 71.7064 43.6976 62.0906 46.1497C52.4748 48.5972 48.3085 64.9139 51.4481 77.3164C52.0623 79.7455 52.9743 81.753 54.0148 83.5405C58.456 84.8834 63.1218 85.9743 67.8931 86.7351C67.4528 85.8732 67.3218 84.8862 67.5218 83.9393C68.0123 81.6889 70.6798 79.5714 73.0539 80.3872C76.9314 81.7164 80.9785 82.4084 85.0898 82.5734C87.0835 78.8793 87.7252 74.1814 86.2723 68.443Z" fill="#E5ACAB"/>
<path d="M67.8929 86.7306C67.4526 85.8687 67.3215 84.8818 67.5216 83.9348C67.6985 83.2221 68.0408 82.561 68.5208 82.0052C62.5991 83.4444 56.8699 82.4544 52.6074 78.5952C52.5378 78.5315 52.449 78.4928 52.3549 78.485C52.2609 78.4772 52.1669 78.5008 52.0878 78.5522C52.0086 78.6036 51.9487 78.6798 51.9175 78.7689C51.8863 78.8579 51.8856 78.9548 51.9154 79.0444C52.4608 80.7356 53.1712 82.184 53.9504 83.5223C58.5206 84.9035 63.1786 85.9754 67.8929 86.7306ZM86.272 68.4431C85.2824 64.6947 83.6945 61.1304 81.5695 57.8877C81.5432 57.8474 81.5033 57.8179 81.4571 57.8044C81.4108 57.791 81.3613 57.7945 81.3175 57.8144C81.2739 57.8345 81.2391 57.8698 81.2197 57.9136C81.2003 57.9575 81.1976 58.007 81.212 58.0527C81.3495 58.4973 81.4733 58.9373 81.5879 59.3819C84.237 69.8181 80.1075 76.9177 72.9895 80.369C73.0125 80.3781 73.0354 80.3735 73.0537 80.3827C76.9266 81.7119 80.9691 82.404 85.0758 82.569C87.0833 78.884 87.7295 74.186 86.272 68.4431Z" fill="#DA9E9D"/>
<path d="M64.1132 57.9193C66.6402 55.9157 67.6892 53.0309 66.4563 51.4758C65.2233 49.9208 62.1753 50.2843 59.6483 52.2878C57.1213 54.2913 56.0722 57.1762 57.3052 58.7313C58.5381 60.2863 61.5862 59.9228 64.1132 57.9193Z" fill="#EFC5C5"/>
</g>
<defs>
<clipPath id="clip0_556_129">
<rect width="165" height="165" fill="white"/>
</clipPath>
</defs>
</svg>
