<svg width="221" height="221" viewBox="0 0 221 221" fill="none" xmlns="http://www.w3.org/2000/svg">
<g clip-path="url(#clip0_556_86)">
<path d="M125.289 152.65L122.778 135.056L169.114 30.7988C170.9 26.784 174.136 23.5916 178.175 21.8605L212.043 7.34822C212.88 6.98833 213.592 6.39128 214.093 5.63085C214.594 4.87041 214.861 3.97992 214.861 3.06941C214.86 2.71393 214.775 2.36369 214.615 2.04642C214.455 1.72916 214.223 1.45359 213.937 1.24154C213.652 1.02949 213.321 0.886785 212.971 0.82472C212.621 0.762655 212.261 0.782939 211.921 0.883965L160.992 16.1637C158.628 16.8738 156.441 18.0777 154.576 19.6958C152.712 21.3139 151.212 23.3092 150.176 25.55L116.639 98.2222L0 221H55.25L66.6622 209.588C71.2926 204.956 76.7365 201.216 82.7215 198.556L128.917 178.028C144.037 167.948 196.42 162.005 214.671 160.2C216.404 160.028 218.012 159.218 219.182 157.927C220.351 156.636 220.999 154.956 221 153.214C221 152.458 220.846 151.71 220.547 151.015C220.248 150.321 219.811 149.694 219.261 149.175C218.712 148.655 218.062 148.253 217.352 147.994C216.642 147.734 215.886 147.622 215.131 147.665L125.289 152.65Z" fill="#E2A27A"/>
<path d="M205.561 91.4263C205.186 90.5239 204.947 87.7184 203.658 85.0419C203.357 84.5753 201.313 81.8312 201.638 82.0277C198.372 78.5162 196.494 76.9385 192.712 74.2067C191.085 74.1576 190.029 74.0287 187.752 70.9838C171.993 61.4992 151.195 46.8641 121.476 46.6861C94.0232 46.5204 58.0432 59.8417 32.708 74.2865C9.71171 87.3992 10.8228 89.5847 11.0316 105.865L29.8227 129.764C36.3913 138.113 42.5486 147.996 50.7809 154.816C55.8516 159.015 67.1287 167.819 112.992 171.152C118.579 171.557 123.6 171.643 126.836 171.115C143.797 168.347 160.262 153.398 164.792 151.207C186.002 140.949 203.381 132.858 205.671 100.751C205.923 97.6463 205.886 94.5245 205.561 91.4263Z" fill="#BD9366"/>
<path d="M220.319 187.611C209.496 172.54 188.2 149.513 167.193 164.455C166.701 164.829 166.321 165.33 166.094 165.903C164.988 165.62 163.817 165.753 162.803 166.278C151.974 171.92 135.737 175.941 143.005 218.016C143.196 219.134 143.975 220.098 145.099 220.613C146.222 221.129 147.554 221.135 148.684 220.626C167.849 211.945 172.202 195.812 171.84 183.326C174.037 186.542 176.659 189.299 179.876 191.361C190.539 198.182 204.093 196.758 212.092 194.99C214.382 194.502 216.638 193.867 218.845 193.086C219.341 192.889 219.783 192.576 220.135 192.173C220.486 191.771 220.736 191.29 220.865 190.772C221.012 190.237 221.039 189.677 220.944 189.13C220.85 188.584 220.636 188.065 220.319 187.611Z" fill="#B3C987"/>
<path d="M150.403 208.722C149.595 208.72 148.819 208.401 148.245 207.832C147.671 207.263 147.343 206.492 147.333 205.683C147.192 191.011 150.783 184.658 155.351 176.61C156.836 173.982 158.451 171.14 160.09 167.677C161.281 165.16 163.982 163.706 166.714 164.006C181.766 165.75 198.206 176.382 207.709 184.958C208.313 185.504 208.676 186.267 208.717 187.08C208.759 187.892 208.476 188.688 207.93 189.292C207.385 189.897 206.622 190.259 205.809 190.301C204.996 190.342 204.2 190.059 203.596 189.513C196.487 183.098 180.569 171.79 166.008 170.102C163.921 173.927 162.245 176.892 160.692 179.636C156.425 187.162 153.343 192.601 153.472 205.622C153.476 206.025 153.401 206.425 153.25 206.799C153.1 207.173 152.877 207.513 152.595 207.801C152.313 208.089 151.977 208.319 151.606 208.477C151.235 208.635 150.837 208.718 150.434 208.722H150.403Z" fill="#99AC74"/>
<path d="M203.701 89.8058C201.478 86.6381 197.74 76.8036 195.088 78.2831C194.192 77.7436 193.174 77.4395 192.129 77.3991C191.705 77.3991 191.251 77.5649 190.803 77.6692C186.579 69.2283 178.531 62.7149 168.691 59.1973C167.064 58.6141 165.664 58.7369 164.522 59.2894C163.282 58.3749 162.048 57.452 160.82 56.5208C157.677 54.1266 154.62 59.4551 157.72 61.8186C164.657 67.1103 167.96 67.6506 168.291 76.5949C169.667 113.471 165.339 138.119 113.029 136.719C98.302 136.326 77.927 125.203 62.9604 112.876C61.2647 110.442 59.813 107.847 58.6264 105.128C57.3065 102.01 52.7576 101.384 50.1117 102.894C49.7802 103.084 49.6022 103.36 49.3321 103.581C45.7654 101.037 41.9226 98.9034 37.8769 97.2216C34.7706 95.9263 31.0321 98.6213 30.2217 101.568C29.2334 105.153 31.4556 107.928 34.5681 109.223C57.9695 118.978 43.7396 132.084 85.6682 142.877C93.4277 144.872 90.1189 156.867 82.3593 154.872C62.5921 149.783 19.7488 119.573 19.7488 119.573C20.2767 120.163 24.9484 186.671 109.027 189.931C111.31 190.017 183.663 194.044 201.589 123.883C204.308 113.22 212.719 102.673 203.701 89.8058Z" fill="#A57F5A"/>
<path d="M121.298 152.742C121.145 149.341 124.263 146.584 127.517 146.523C128.978 146.499 130.421 146.382 131.882 146.253L132.127 146.235L132.355 146.192C133.054 146.069 133.754 145.958 134.454 145.823C136.873 145.351 139.261 144.712 141.618 143.988C146.499 142.484 151.25 140.593 156.069 138.892C159.353 137.732 162.742 140.212 163.718 143.233C164.805 146.584 162.435 149.801 159.378 150.882C148.948 154.565 138.764 158.746 127.523 158.954C124.03 159.022 121.446 156.057 121.298 152.742Z" fill="#BD9366"/>
<path d="M111.986 59.4676C91.322 56.3368 70.0631 57.6443 55.784 71.3218C53.4144 73.587 52.3094 76.8161 52.2848 80.1679C49.4425 83.44 47.9139 87.3811 49.1663 92.5378C50.7501 99.0573 51.4008 103.612 57.6871 106.467C97.4609 124.521 166.806 125.105 172.288 79.4067C174.897 57.6873 130.494 62.2731 111.986 59.4676Z" fill="#936D46"/>
<path d="M115.571 172.558C115.718 175.855 112.643 178.728 109.432 178.697C95.9692 178.589 82.6261 176.16 69.9896 171.515C66.7605 170.318 64.9127 167.438 65.7046 163.964C66.3983 160.925 70.2413 158.562 73.2555 159.679C85.3123 164.142 96.9148 166.303 109.432 166.419C112.876 166.45 115.424 169.206 115.571 172.558ZM202.418 89.4193C201.288 86.3069 198.231 84.2135 194.861 85.1466C191.853 85.9815 189.452 89.5727 190.588 92.7036C193.817 101.611 197.574 111.556 195.444 121.157C194.523 125.301 192.737 128.862 189.569 131.729C185.738 135.203 181.226 138.052 177.064 141.115C174.4 143.079 173.074 146.45 174.879 149.519C176.426 152.153 180.594 153.681 183.283 151.704C188.396 147.941 193.971 144.418 198.612 140.071C202.823 136.13 205.696 130.795 207.089 125.234C210.14 113.054 206.568 100.868 202.418 89.4193Z" fill="#BD9366"/>
<path d="M153.386 22.0938C153.487 21.6466 153.482 21.1823 153.374 20.7371C153.368 20.7248 153.356 20.7125 153.356 20.6941C153.331 20.602 153.27 20.5284 153.233 20.4424C153.104 20.085 152.91 19.7542 152.662 19.4663C152.619 19.4234 152.613 19.3558 152.57 19.3129C128.61 -4.64722 111.562 2.01961 103.379 5.21798C102.262 5.65384 101.322 6.03445 100.543 6.23089C100.097 6.34226 99.681 6.55247 99.327 6.846C98.9729 7.13952 98.6894 7.50885 98.4972 7.9267C98.3051 8.34455 98.2093 8.80023 98.217 9.26006C98.2246 9.7199 98.3355 10.1721 98.5414 10.5834C98.6397 10.7737 105.632 24.1749 123.588 27.3057C121.482 30.854 119.665 35.1635 118.167 40.2956C117.962 41.0088 118.021 41.7723 118.333 42.4456C118.646 43.1189 119.191 43.6568 119.868 43.9605C121.74 44.7893 123.68 45.2006 125.675 45.2006C134.343 45.2006 144 37.4901 152.993 23.119C153.122 22.9103 153.171 22.6708 153.245 22.4437C153.276 22.3516 153.356 22.2902 153.374 22.192C153.399 22.1552 153.38 22.1245 153.386 22.0938Z" fill="#B3C987"/>
<path d="M127.21 18.6009C123.539 16.6242 119.383 14.3774 112.6 12.1183C112.207 11.9992 111.842 11.8026 111.526 11.5401C111.211 11.2775 110.951 10.9544 110.763 10.5897C110.575 10.2251 110.461 9.8264 110.43 9.4172C110.398 9.00799 110.449 8.59661 110.579 8.20737C110.709 7.81813 110.916 7.45894 111.187 7.15106C111.459 6.84318 111.789 6.59285 112.159 6.41489C112.529 6.23693 112.931 6.13494 113.34 6.11497C113.75 6.09499 114.16 6.15743 114.546 6.29859C121.832 8.72959 126.437 11.2036 130.126 13.1987C132.422 14.4388 134.423 15.5008 136.633 16.348C135.97 16.526 135.283 16.6119 134.638 16.8759C132.832 17.6206 131.152 18.6417 129.66 19.9024C128.839 19.4767 128.022 19.0429 127.21 18.6009ZM134.902 34.7339C137.186 27.8829 142.257 24.5556 150.403 24.5556C151.217 24.5556 151.998 24.2323 152.573 23.6566C153.149 23.081 153.472 22.3003 153.472 21.4862C153.472 20.6721 153.149 19.8914 152.573 19.3158C151.998 18.7401 151.217 18.4168 150.403 18.4168C139.58 18.4168 132.207 23.3893 129.07 32.794C128.813 33.5674 128.873 34.4113 129.238 35.14C129.603 35.8688 130.243 36.4227 131.016 36.68C131.79 36.9372 132.633 36.8767 133.362 36.5117C134.091 36.1468 134.645 35.5073 134.902 34.7339Z" fill="#99AC74"/>
<path d="M130.587 62.2176C60.3637 59.5717 47.3186 88.9463 57.589 100.733C60.7751 104.386 64.6364 106.571 68.9582 108.695C76.1591 112.231 70.3517 123.244 63.1569 119.714C37.8156 107.277 36.9869 86.0671 51.6895 71.6899C42.7206 75.2259 39.8353 63.034 46.9748 60.1487C56.9198 56.1339 67.2209 53.5617 77.6938 51.9288C74.5323 51.3579 68.9398 51.6034 68.3996 45.5934C67.3805 34.1935 84.4834 41.02 96.3745 43.9237C104.742 38.8038 114.153 37.662 123.975 38.4416C131.053 39.0003 132.312 46.1766 127.947 49.7249C139.549 50.1178 137.935 62.4999 130.587 62.2176Z" fill="#DEAD74"/>
<path d="M53.8012 144.817C41.7076 123.091 28.8957 123.177 20.7433 111.36C5.78895 89.6709 37.6866 82.7155 32.0634 63.7771C29.7797 56.1096 17.7598 59.3755 20.0496 67.0859C21.793 72.9608 10.9518 76.2144 5.96084 91.5003C3.72524 98.3482 4.01707 105.77 6.78346 112.422C-0.392906 113.692 0.577039 123.294 6.18798 124.411C10.7001 125.307 13.2968 126.21 16.9863 127.628C18.6192 128.702 33.3342 133.662 43.0459 151.103C46.8827 157.984 57.9511 152.269 53.8012 144.817ZM212.884 87.0373C210.361 81.8622 206.113 77.6939 201.435 74.1456C200.87 71.8589 200.234 69.5905 199.526 67.3437C204.529 65.9134 205.984 57.4724 199.68 55.3913C193.725 53.4269 186.948 57.8714 186.653 65.5266C177.075 59.7291 166.92 54.9436 156.351 51.2476C148.868 48.6324 144.712 60.3638 152.736 63.1632C175.646 71.1683 163.927 93.0104 144.307 104.656C129.027 111.249 112.538 112.698 97.8539 107.664C91.187 105.38 86.1593 116.731 95.2019 119.831C115.227 126.695 139.426 121.888 157.96 111.452C168.451 105.54 178.255 88.7746 176.303 76.8406C175.99 74.9437 178.101 73.6545 179.667 74.6981C185.026 78.2648 190.005 83.2803 189.759 85.5087C188.47 97.3261 187.218 103.14 174.866 112.231C172.331 114.098 170.71 117.676 171.729 120.955C172.65 123.914 176.125 125.866 178.936 124.356C184.615 121.305 190.078 117.302 194.431 110.991C198.943 104.613 199.465 98.2285 201.196 91.6292C203.891 96.2456 204.689 102.188 202.332 108.806C201.165 112.078 203.467 115.89 206.469 116.363C217.225 118.456 218.072 97.676 212.884 87.0373ZM138.444 133.208C136.038 120.856 111.906 137.56 90.2601 123.987C82.918 119.383 76.6379 130.132 83.1758 134.233C98.4432 143.81 116.393 142.428 133.527 140.519C136.873 140.139 139.052 136.314 138.444 133.208Z" fill="#DEAD74"/>
<path d="M137.787 55.5506C124.871 52.2725 109.524 68.8045 105.306 85.4102C102.415 96.804 105.589 105.19 111.986 110.445C122.679 111.23 133.772 109.198 144.307 104.656C146.73 103.195 149.046 101.565 151.238 99.7752C151.514 98.9403 151.858 98.1975 152.091 97.2951C156.302 80.6832 150.71 58.8288 137.787 55.5506Z" fill="#DCBA4E"/>
<path d="M146.486 62.3771C146.377 62.4243 146.287 62.5086 146.233 62.6152C146.179 62.7218 146.165 62.8439 146.192 62.9603C147.745 70.063 147.739 78.0251 145.952 85.0603C141.735 101.672 129.297 106.749 116.381 103.465C111.973 102.347 108.106 100.371 105.061 97.6327C105.02 97.5959 104.968 97.5726 104.913 97.5661C104.858 97.5595 104.803 97.5699 104.754 97.5959C104.706 97.6227 104.668 97.6636 104.643 97.7129C104.619 97.7623 104.611 97.8178 104.619 97.8721C105.441 102.811 108.039 107.28 111.924 110.438C122.637 111.236 133.754 109.205 144.307 104.649C146.73 103.189 149.046 101.558 151.238 99.7691C151.514 98.9342 151.858 98.1914 152.091 97.2828C155.087 85.4961 153.122 71.1004 147.119 62.5428C147.046 62.4491 146.945 62.3819 146.831 62.3519C146.716 62.3219 146.595 62.3308 146.486 62.3771Z" fill="#BA9D42"/>
<path d="M130.943 62.9542C127.419 62.0579 121.955 65.7412 118.745 71.1741C115.534 76.6132 115.779 81.7453 119.303 82.6354C122.827 83.5256 128.291 79.8484 131.501 74.4155C134.718 68.9825 134.466 63.8504 130.943 62.9542Z" fill="#EFD47F"/>
<path d="M115.552 91.6719C111.347 75.06 96.043 58.528 83.1636 61.8123C70.2842 65.0905 64.704 86.9449 68.9091 103.557C69.7317 106.81 70.9534 109.499 72.3469 111.893C78.2955 113.692 84.5449 115.153 90.9355 116.172C90.3458 115.018 90.1702 113.696 90.4382 112.427C91.0951 109.413 94.6679 106.577 97.8479 107.67C103.041 109.45 108.462 110.377 113.969 110.598C116.639 105.65 117.498 99.3578 115.552 91.6719Z" fill="#E5ACAB"/>
<path d="M90.9352 116.166C90.3455 115.012 90.17 113.69 90.438 112.421C90.6749 111.467 91.1334 110.581 91.7763 109.837C83.8448 111.764 76.1712 110.438 70.462 105.269C70.3688 105.184 70.2498 105.132 70.1238 105.122C69.9979 105.111 69.872 105.143 69.766 105.212C69.6599 105.281 69.5797 105.383 69.538 105.502C69.4962 105.621 69.4952 105.751 69.5351 105.871C70.2656 108.136 71.2171 110.076 72.2607 111.869C78.382 113.719 84.621 115.154 90.9352 116.166ZM115.552 91.6718C114.227 86.6511 112.1 81.8772 109.254 77.5339C109.218 77.48 109.165 77.4404 109.103 77.4224C109.041 77.4044 108.975 77.4091 108.916 77.4357C108.858 77.4626 108.811 77.5099 108.785 77.5687C108.759 77.6274 108.755 77.6937 108.775 77.7549C108.959 78.3504 109.125 78.9398 109.278 79.5352C112.827 93.5135 107.295 103.023 97.7617 107.645C97.7924 107.657 97.8231 107.651 97.8476 107.664C103.035 109.444 108.449 110.371 113.95 110.592C116.639 105.656 117.504 99.3638 115.552 91.6718Z" fill="#DA9E9D"/>
<path d="M85.8726 77.5769C89.2572 74.8933 90.6623 71.0294 89.0109 68.9466C87.3596 66.8637 83.277 67.3506 79.8924 70.0341C76.5077 72.7177 75.1026 76.5816 76.754 78.6644C78.4054 80.7473 82.4879 80.2604 85.8726 77.5769Z" fill="#EFC5C5"/>
</g>
<defs>
<clipPath id="clip0_556_86">
<rect width="221" height="221" fill="white"/>
</clipPath>
</defs>
</svg>
